<svg width="28" height="28" viewBox="0 0 28 28" fill="none" xmlns="http://www.w3.org/2000/svg">
<path fill-rule="evenodd" clip-rule="evenodd" d="M12.5484 4.48388L12.4485 4.36612C12.0159 3.91551 11.3353 3.88085 10.8645 4.26213L10.7515 4.36612L2.35147 13.1161L2.30179 13.1711L2.2356 13.2559L2.14961 13.3949L2.08547 13.5358L2.04301 13.6675L2.00829 13.8524L2 14L2.00335 14.094L2.02429 14.2509L2.05969 14.3902L2.11241 14.529L2.17519 14.6509L2.26363 14.7818L2.35147 14.8839L10.7515 23.6339C11.2201 24.122 11.9799 24.122 12.4485 23.6339C12.8811 23.1833 12.9144 22.4742 12.5484 21.9839L12.4485 21.8661L6.0992 15.25H24.8C25.4627 15.25 26 14.6904 26 14C26 13.3096 25.4627 12.75 24.8 12.75H6.0968L12.4485 6.13388C12.8811 5.68328 12.9144 4.97424 12.5484 4.48388L12.4485 4.36612L12.5484 4.48388Z" fill="white"/>
</svg>
