<svg width="28" height="28" viewBox="0 0 28 28" fill="none" xmlns="http://www.w3.org/2000/svg">
<path fill-rule="evenodd" clip-rule="evenodd" d="M5.83346 23.3333C5.01182 23.3333 4.46231 22.5142 4.73653 21.7684L4.78996 21.6449L6.13794 18.9489C6.64824 17.9283 6.93837 16.8134 6.99129 15.6764L7.00012 15.2967V11.6666C7.00012 8.19807 9.5229 5.31873 12.8337 4.76339L12.8335 3.49998C12.8335 2.85565 13.3558 2.33331 14.0001 2.33331C14.6445 2.33331 15.1668 2.85565 15.1668 3.49998L15.1677 4.76359C18.386 5.30396 20.8594 8.04032 20.9943 11.379L21.0001 11.6666V15.2967C21.0001 16.4377 21.2392 17.5647 21.7004 18.6053L21.8623 18.9489L23.2103 21.6449C23.5777 22.3798 23.0908 23.2376 22.3011 23.3259L22.1668 23.3333H16.3335C16.3335 24.622 15.2888 25.6666 14.0001 25.6666C12.7115 25.6666 11.6668 24.622 11.6668 23.3333H5.83346ZM14.0001 6.99998C11.5009 6.99998 9.46053 8.96461 9.33917 11.4337L9.33346 11.6666V15.2967C9.33346 16.7909 9.01455 18.2663 8.39989 19.6249L8.22494 19.9924L7.72116 21H20.2791L19.7753 19.9924C19.1071 18.6559 18.7325 17.1937 18.6747 15.7037L18.6668 15.2967V11.6666C18.6668 9.08932 16.5775 6.99998 14.0001 6.99998Z" fill="white"/>
</svg>
