<svg width="28" height="28" viewBox="0 0 28 28" fill="none" xmlns="http://www.w3.org/2000/svg">
<path fill-rule="evenodd" clip-rule="evenodd" d="M4.66735 23.3335C3.72841 23.3335 3.10045 22.3974 3.41382 21.5452L3.47487 21.4041L5.01531 18.3232C5.59846 17.1569 5.93001 15.8828 5.99049 14.5834L6.00059 14.1495V10.0012C6.00059 6.0374 8.88355 2.74696 12.667 2.11234C13.5302 1.96573 14.4117 1.9626 15.2759 2.10307L15.3343 2.11256C19.012 2.73009 21.8386 5.85713 21.9928 9.67251L21.9994 10.0012V14.1495C21.9994 15.4534 22.2726 16.7413 22.7996 17.9305L22.9847 18.3232L24.5251 21.4041C24.945 22.2439 24.3886 23.2242 23.4861 23.325L23.3326 23.3335H16.6665C16.6665 24.8062 15.4726 26 14 26C12.5273 26 11.3335 24.8062 11.3335 23.3335H4.66735ZM8.36801 9.56695C8.51466 6.58351 10.98 4.20965 13.9998 4.20965C17.114 4.20965 19.6386 6.73419 19.6386 9.84837V14.2345L19.6481 14.7263C19.7179 16.5267 20.1705 18.2935 20.978 19.9084L21.5867 21.1258H6.41298L7.02169 19.9084L7.23309 19.4643C7.97578 17.8228 8.36111 16.04 8.36111 14.2345V9.84837L8.36801 9.56695Z" fill="white"/>
</svg>
