<svg width="28" height="28" viewBox="0 0 28 28" fill="none" xmlns="http://www.w3.org/2000/svg">
<path fill-rule="evenodd" clip-rule="evenodd" d="M12.8333 2.33331C18.6322 2.33331 23.3333 7.03432 23.3333 12.8333C23.3333 15.3122 22.4742 17.5905 21.0376 19.3867L25.3249 23.675C25.7805 24.1306 25.7805 24.8693 25.3249 25.3249C24.9043 25.7455 24.2425 25.7779 23.7849 25.422L23.675 25.3249L19.3866 21.0377C17.5904 22.4743 15.3122 23.3333 12.8333 23.3333C7.03426 23.3333 2.33325 18.6323 2.33325 12.8333C2.33325 7.03432 7.03426 2.33331 12.8333 2.33331ZM12.8333 4.66665C8.32293 4.66665 4.66659 8.32299 4.66659 12.8333C4.66659 17.3436 8.32293 21 12.8333 21C17.3436 21 20.9999 17.3436 20.9999 12.8333C20.9999 8.32299 17.3436 4.66665 12.8333 4.66665Z" fill="white"/>
</svg>
