<svg width="76" height="24" viewBox="0 0 76 24" fill="none" xmlns="http://www.w3.org/2000/svg">
<g filter="url(#filter0_b_21_510)">
<path d="M0.463867 18.4872V5.66667H4.3613L4.48951 8.15385C4.89977 7.24786 5.47241 6.5641 6.20746 6.10256C6.95959 5.64103 7.82284 5.41025 8.7972 5.41025C9.75447 5.41025 10.5835 5.62393 11.2844 6.05128C11.9852 6.47863 12.5066 7.11111 12.8485 7.94872C13.122 7.38461 13.4724 6.91453 13.8998 6.53846C14.3442 6.16239 14.8485 5.88034 15.4126 5.69231C15.9767 5.50427 16.5579 5.41025 17.1562 5.41025C18.0109 5.41025 18.763 5.5812 19.4126 5.92308C20.0622 6.24786 20.575 6.75214 20.951 7.4359C21.3442 8.10256 21.5408 8.94017 21.5408 9.94872V18.4872H17.1818V10.9487C17.1818 10.1282 17.0194 9.55556 16.6946 9.23077C16.3869 8.90598 15.9681 8.74359 15.4382 8.74359C15.0109 8.74359 14.6177 8.8547 14.2587 9.07692C13.9169 9.28205 13.6519 9.59829 13.4639 10.0256C13.2758 10.453 13.1818 10.9915 13.1818 11.641V18.4872H8.82284V10.9487C8.82284 10.1282 8.66045 9.55556 8.33566 9.23077C8.01088 8.90598 7.59207 8.74359 7.07925 8.74359C6.68609 8.74359 6.31002 8.84615 5.95105 9.05128C5.60917 9.25641 5.33566 9.5812 5.13053 10.0256C4.92541 10.453 4.82284 11.0171 4.82284 11.7179V18.4872H0.463867Z" fill="white"/>
<path d="M28.9358 18.7436C28.064 18.7436 27.2948 18.5983 26.6281 18.3077C25.9786 18 25.4657 17.5128 25.0897 16.8462C24.7136 16.1795 24.5256 15.3077 24.5256 14.2308V5.66667H28.8845V13.2051C28.8845 14.0256 29.0469 14.5983 29.3717 14.9231C29.6965 15.2479 30.158 15.4103 30.7563 15.4103C31.064 15.4103 31.3546 15.359 31.6281 15.2564C31.9016 15.1368 32.1409 14.9658 32.3461 14.7436C32.5512 14.5043 32.7051 14.2051 32.8076 13.8462C32.9273 13.4701 32.9871 13.0342 32.9871 12.5385V5.66667H37.3461V18.4872H33.4486L33.3204 16.0769C32.9102 16.9829 32.3375 17.6581 31.6025 18.1026C30.8674 18.5299 29.9786 18.7436 28.9358 18.7436Z" fill="white"/>
<path d="M52.8881 2.23077L53.2471 5.15384C53.1446 5.11966 53.042 5.10256 52.9394 5.10256C52.8369 5.08547 52.7343 5.07692 52.6317 5.07692C51.8796 5.07692 51.3155 5.26496 50.9394 5.64102C50.5805 6 50.401 6.45299 50.401 7L48.8625 6.4359C48.8625 5.73504 48.9907 5.05983 49.2471 4.41026C49.5035 3.76068 49.8967 3.23077 50.4266 2.82051C50.9736 2.41026 51.6574 2.20513 52.4779 2.20513C52.5292 2.20513 52.589 2.20513 52.6574 2.20513C52.7428 2.20513 52.8198 2.21367 52.8881 2.23077ZM48.4779 15.641C49.9651 15.641 51.1018 15.9573 51.8881 16.5897C52.6916 17.2051 53.0933 18.094 53.0933 19.2564C53.0933 20.3162 52.8027 21.1966 52.2215 21.8974C51.6403 22.5983 50.8198 23.1197 49.7599 23.4615C48.7172 23.8205 47.4779 24 46.042 24C43.7172 24 42.042 23.7094 41.0163 23.1282C39.9907 22.547 39.4779 21.7607 39.4779 20.7692C39.4779 20.0513 39.7685 19.4701 40.3497 19.0256C40.9309 18.5812 41.8967 18.3419 43.2471 18.3077L43.1446 18.7179C42.1018 18.5812 41.324 18.2735 40.8112 17.7949C40.2984 17.3162 40.042 16.6667 40.042 15.8462C40.042 15.0256 40.3668 14.359 41.0163 13.8462C41.6659 13.3333 42.5292 13.0513 43.6061 13L45.1958 13.7436H44.7856C44.1189 13.7778 43.6488 13.8889 43.3753 14.0769C43.1018 14.265 42.9651 14.4957 42.9651 14.7692C42.9651 15.0598 43.0847 15.2821 43.324 15.4359C43.5634 15.5726 43.9223 15.641 44.401 15.641H48.4779ZM46.0676 21.1795C46.8881 21.1795 47.5634 21.1197 48.0933 21C48.6403 20.8974 49.0505 20.7436 49.324 20.5385C49.5975 20.3504 49.7343 20.1282 49.7343 19.8718C49.7343 19.6154 49.6403 19.4103 49.4522 19.2564C49.2642 19.1197 48.9223 19.0513 48.4266 19.0513H43.8369C43.5121 19.0513 43.2471 19.1368 43.042 19.3077C42.854 19.4786 42.7599 19.6923 42.7599 19.9487C42.7599 20.3419 43.0505 20.641 43.6317 20.8462C44.2129 21.0684 45.0249 21.1795 46.0676 21.1795ZM46.2215 5.41025C47.5206 5.41025 48.6317 5.5812 49.5548 5.92308C50.4779 6.26496 51.1787 6.76068 51.6574 7.41026C52.1531 8.04274 52.401 8.82906 52.401 9.76923C52.401 10.6923 52.1531 11.4786 51.6574 12.1282C51.1787 12.7778 50.4779 13.2735 49.5548 13.6154C48.6317 13.9402 47.5206 14.1026 46.2215 14.1026C44.1873 14.1026 42.6403 13.7265 41.5805 12.9744C40.5377 12.2222 40.0164 11.1538 40.0164 9.76923C40.0164 8.82906 40.2557 8.04274 40.7343 7.41026C41.23 6.76068 41.9394 6.26496 42.8625 5.92308C43.7856 5.5812 44.9052 5.41025 46.2215 5.41025ZM46.2215 7.89744C45.6574 7.89744 45.1958 8.05983 44.8369 8.38461C44.495 8.7094 44.324 9.17094 44.324 9.76923C44.324 10.3504 44.495 10.8034 44.8369 11.1282C45.1958 11.453 45.6574 11.6154 46.2215 11.6154C46.7685 11.6154 47.2215 11.453 47.5805 11.1282C47.9394 10.8034 48.1189 10.3504 48.1189 9.76923C48.1189 9.17094 47.9394 8.7094 47.5805 8.38461C47.2215 8.05983 46.7685 7.89744 46.2215 7.89744Z" fill="white"/>
<path d="M57.0053 4.17949C56.1164 4.17949 55.4669 4.01709 55.0566 3.69231C54.6635 3.35043 54.4669 2.82051 54.4669 2.10256C54.4669 1.36752 54.6635 0.837606 55.0566 0.51282C55.4669 0.17094 56.1164 0 57.0053 0C57.8771 0 58.5182 0.17094 58.9284 0.51282C59.3387 0.837606 59.5438 1.36752 59.5438 2.10256C59.5438 2.82051 59.3387 3.35043 58.9284 3.69231C58.5182 4.01709 57.8771 4.17949 57.0053 4.17949ZM59.1848 5.66667V18.4872H54.8258V5.66667H59.1848Z" fill="white"/>
<path d="M62.2878 23.8718V5.66667H66.2109L66.4416 10.3077L65.9288 9.76923C66.0485 8.91453 66.3134 8.16239 66.7237 7.51282C67.1339 6.86325 67.6639 6.35043 68.3134 5.97436C68.963 5.59829 69.7066 5.41025 70.5442 5.41025C71.604 5.41025 72.5271 5.67521 73.3134 6.20513C74.0998 6.71795 74.7066 7.47009 75.1339 8.46154C75.5784 9.4359 75.8006 10.6239 75.8006 12.0256C75.8006 13.4274 75.5784 14.6325 75.1339 15.641C74.6895 16.6496 74.0656 17.4188 73.2621 17.9487C72.4758 18.4786 71.5527 18.7436 70.4929 18.7436C69.3305 18.7436 68.3903 18.4017 67.6724 17.718C66.9544 17.0171 66.4758 16.1368 66.2365 15.0769L66.6468 14.4615V23.8718H62.2878ZM69.0057 15.5385C69.7579 15.5385 70.3476 15.265 70.775 14.7179C71.2023 14.1538 71.416 13.2735 71.416 12.0769C71.416 10.8803 71.2023 10.0085 70.775 9.46154C70.3647 8.89744 69.7835 8.61538 69.0314 8.61538C68.5527 8.61538 68.1339 8.75214 67.775 9.02564C67.416 9.28205 67.1339 9.66667 66.9288 10.1795C66.7408 10.6923 66.6468 11.3248 66.6468 12.0769C66.6468 12.7949 66.7322 13.4188 66.9032 13.9487C67.0912 14.4615 67.3647 14.8547 67.7237 15.1282C68.0827 15.4017 68.51 15.5385 69.0057 15.5385Z" fill="white"/>
</g>
<defs>
<filter id="filter0_b_21_510" x="-7.53613" y="-8" width="91.3367" height="40" filterUnits="userSpaceOnUse" color-interpolation-filters="sRGB">
<feFlood flood-opacity="0" result="BackgroundImageFix"/>
<feGaussianBlur in="BackgroundImage" stdDeviation="4"/>
<feComposite in2="SourceAlpha" operator="in" result="effect1_backgroundBlur_21_510"/>
<feBlend mode="normal" in="SourceGraphic" in2="effect1_backgroundBlur_21_510" result="shape"/>
</filter>
</defs>
</svg>
