<svg xmlns="http://www.w3.org/2000/svg" width="22.044" height="27.115" viewBox="0 0 22.044 27.115">
  <defs>
    <style>
      .cls-1 {
        fill: #5408ff;
      }

      .cls-1, .cls-2 {
        stroke: #473493;
        stroke-width: 2px;
      }

      .cls-2 {
        fill: none;
      }
    </style>
  </defs>
  <g id="구성_요소_87_57" data-name="구성 요소 87 – 57" transform="translate(1.001 1.005)">
    <g id="구성_요소_83_1" data-name="구성 요소 83 – 1">
      <path id="패스_23" data-name="패스 23" class="cls-1" d="M7901.332-1741.173c2.456-3.8-2.88-5.744-2.88-5.744s-.038-5.186-4.91-6.693a9.365,9.365,0,0,0-3.583-.21c-8.434.885-5.553,8.592-5.553,8.592s-5.464,5.838,0,7.149" transform="translate(-7881.979 1758.916)"/>
      <line id="선_139" data-name="선 139" class="cls-2" y1="3.157" x2="18.094" transform="translate(1.906 17.679)"/>
      <path id="패스_24" data-name="패스 24" class="cls-2" d="M7890.54-1751.786s-.35-7.372,2.83-6.928,2.77,3.839,2.77,3.839h-.5a4.337,4.337,0,0,0-.668-2.148c-.216-.361-.912-.6-1.6-.915-.5-.23-.779.286-1.129.915a7.925,7.925,0,0,0-.491,2.965" transform="translate(-7886.236 1758.734)"/>
      <path id="패스_25" data-name="패스 25" class="cls-1" d="M0,2.369,5.586,1.031,9.259,0S9.172,4.057,5.586,5.086,0,2.369,0,2.369Z" transform="matrix(0.999, 0.052, -0.052, 0.999, 6.512, 19.258)"/>
    </g>
  </g>
</svg>
